# xmcd CD database file
#
# Track frame offsets:
#	150
#	23384
#	44546
#	62419
#	84190
#	102279
#	120931
#	133110
#	148750
#	168668
#	180587
#	203268
#	219445
#
# Disc length: 3270 seconds
#
# Revision: 1
# Processed by: cddbd v1.5.2PL0 Copyright (c) Steve Scherf et al.
# Submitted via: CDex 1.51
#
DISCID=a30cc40d
DTITLE=Ladytron - Velocifero
DYEAR=2008
DGENRE=Pop
TTITLE0=Black Cat
TTITLE1=Ghosts
TTITLE2=I'm Not Scared
TTITLE3=Runaway
TTITLE4=Season Of Illusions
TTITLE5=Burning Up
TTITLE6=Kletva
TTITLE7=They Gave You A Heart, They Gave You A Name
TTITLE8=Predict The Day
TTITLE9=The Lovers
TTITLE10=Deep Blue
TTITLE11=Tomorrow
TTITLE12=Versus
EXTD=YEAR: 2008
EXTT0=
EXTT1=
EXTT2=
EXTT3=
EXTT4=
EXTT5=
EXTT6=
EXTT7=
EXTT8=
EXTT9=
EXTT10=
EXTT11=
EXTT12=
PLAYORDER=
